<?xml version="1.0" encoding="utf-8"?>
<!-- Generator: Adobe Illustrator 24.0.1, SVG Export Plug-In . SVG Version: 6.00 Build 0)  -->
<svg version="1.1" id="Слой_1" xmlns="http://www.w3.org/2000/svg" xmlns:xlink="http://www.w3.org/1999/xlink" x="0px" y="0px"
	 viewBox="0 0 125 56" style="enable-background:new 0 0 125 56;" xml:space="preserve">
<g>
	<path d="M56.37,20.19v8.15h9.42v-8.15h2.54v19.48h-2.54v-9.13h-9.42v9.13h-2.51V20.19H56.37z"/>
	<path d="M83.37,39.67l-2.49-4.31c-1.01-1.65-1.65-2.72-2.25-3.84h-0.06c-0.55,1.13-1.1,2.17-2.11,3.87l-2.34,4.28h-2.89l5.95-9.85
		l-5.72-9.62h2.92l2.57,4.57c0.72,1.27,1.27,2.25,1.79,3.29h0.09c0.55-1.16,1.04-2.05,1.76-3.29l2.66-4.57h2.89l-5.92,9.48l6.07,10
		H83.37z"/>
	<path d="M99.55,20.19v2.11h-7.83v17.37h-2.51V20.19H99.55z"/>
	<path d="M115.8,20.19v19.48h-2.51V22.3h-9.05v17.37h-2.51V20.19H115.8z"/>
</g>
<g>
	<g>
		<path d="M22.49,48.49c-4.23,0-8.22-1.62-11.21-4.57c-2.99-2.95-4.64-6.87-4.64-11.04s1.65-8.09,4.64-11.04
			c2.99-2.95,6.98-4.57,11.21-4.57s8.22,1.62,11.21,4.57c2.99,2.95,4.64,6.87,4.64,11.04s-1.65,8.09-4.64,11.04
			C30.7,46.86,26.72,48.49,22.49,48.49z M22.49,19.06c-7.73,0-14.02,6.2-14.02,13.81c0,7.61,6.29,13.81,14.02,13.81
			s14.02-6.2,14.02-13.81C36.51,25.26,30.22,19.06,22.49,19.06z"/>
		<path d="M14.94,22.57c0.38,0,0.67,0.18,0.8,0.48c0.13,0.29,0.07,0.65-0.18,0.87c-0.4,0.36-0.81,0.71-1.22,1.05
			c-0.33,0.27-0.81,0.22-1.1-0.08c-0.28-0.3-0.29-0.76-0.01-1.07c0.4-0.42,0.85-0.79,1.31-1.13C14.68,22.61,14.83,22.57,14.94,22.57
			z"/>
		<path d="M29.97,43.12c-0.38,0-0.68-0.2-0.8-0.49c-0.13-0.3-0.06-0.65,0.18-0.87c0.4-0.36,0.81-0.71,1.22-1.05
			c0.32-0.26,0.8-0.22,1.08,0.07c0.29,0.3,0.31,0.78,0.02,1.09c-0.39,0.41-0.82,0.77-1.27,1.1C30.26,43.07,30.09,43.12,29.97,43.12z
			"/>
		<path d="M17.53,26.04c-0.01,0.57-0.94,1.41-1.45,1.37c-0.32-0.02-0.56-0.18-0.69-0.47c-0.13-0.29-0.1-0.58,0.11-0.82
			c0.23-0.26,0.49-0.49,0.76-0.69c0.26-0.19,0.55-0.19,0.84-0.04C17.39,25.54,17.53,25.79,17.53,26.04z"/>
		<path d="M29.59,39.09c-0.01,0.52-0.94,1.36-1.46,1.31c-0.31-0.03-0.54-0.19-0.67-0.47c-0.13-0.29-0.1-0.58,0.11-0.82
			c0.23-0.25,0.49-0.48,0.76-0.69c0.25-0.19,0.55-0.2,0.84-0.05C29.45,38.52,29.59,38.77,29.59,39.09z"/>
		<path d="M21.25,20.09c-0.75,0.08-1.49,0.2-2.22,0.4c-0.79,0.22-1.55,0.51-2.29,0.87c-0.33,0.16-0.51,0.49-0.47,0.81
			c0.05,0.35,0.31,0.63,0.67,0.7c0.24,0.05,0.45-0.04,0.66-0.14c2.69-1.25,5.46-1.42,8.29-0.56c0.17,0.05,0.21,0.1,0.17,0.27
			c-0.1,0.38-0.21,0.75-0.33,1.12c-0.07,0.2-0.15,0.2-0.32,0.15c-1.25-0.39-2.52-0.54-3.83-0.42c-1.08,0.09-2.11,0.36-3.1,0.79
			c-0.44,0.19-0.61,0.68-0.39,1.09c0.22,0.4,0.63,0.54,1.11,0.34c1.08-0.44,2.19-0.66,3.36-0.63c0.76,0.02,1.51,0.13,2.26,0.36
			c-0.29,0.41-0.61,0.76-0.96,1.08c-1.38,1.26-3.03,1.97-4.86,2.32c-0.48,0.09-0.71,0.31-0.8,0.78c-0.03,0.16-0.07,0.33-0.11,0.49
			c-0.38,1.54-1.06,2.94-2.13,4.15c-1.28,1.44-2.92,2.23-4.83,2.49c-0.65,0.09-0.93,0.59-0.68,1.19c1.19,2.86,3.2,5.01,5.96,6.44
			c3.01,1.56,6.2,1.89,9.5,1.02c0.78-0.21,1.54-0.5,2.27-0.86c0.34-0.17,0.53-0.5,0.48-0.83c-0.05-0.34-0.31-0.61-0.65-0.69
			c-0.27-0.06-0.49,0.06-0.73,0.17c-2.69,1.23-5.45,1.39-8.27,0.53c-0.16-0.05-0.17-0.12-0.14-0.25c0.1-0.4,0.21-0.79,0.35-1.17
			c0.05-0.14,0.11-0.17,0.25-0.13c1.29,0.42,2.6,0.57,3.95,0.44c1.06-0.1,2.08-0.36,3.05-0.8c0.32-0.15,0.48-0.41,0.47-0.76
			c-0.01-0.32-0.23-0.61-0.55-0.71c-0.23-0.08-0.45-0.04-0.67,0.05c-1.34,0.57-2.75,0.75-4.2,0.57c-0.47-0.06-0.94-0.15-1.41-0.31
			c0.4-0.55,0.86-1.02,1.37-1.43c1.31-1.04,2.81-1.66,4.46-1.97c0.46-0.09,0.7-0.31,0.78-0.76c0.09-0.47,0.21-0.93,0.36-1.38
			c0.57-1.63,1.45-3.06,2.82-4.16c1.14-0.92,2.48-1.4,3.93-1.6c0.6-0.08,0.89-0.6,0.66-1.15c-0.81-1.94-2.02-3.59-3.66-4.93
			c-1.9-1.56-4.07-2.54-6.52-2.89c-0.33-0.05-1.27-0.09-1.39-0.14 M22.47,35.24c-1.33,0.01-2.44-1.09-2.45-2.4
			c0-1.31,1.11-2.41,2.44-2.4c1.33,0,2.44,1.11,2.43,2.41C24.89,34.16,23.8,35.23,22.47,35.24z"/>
	</g>
	<path d="M39.9,25.67c-0.95-2.17-2.32-4.11-4.06-5.78c-1.74-1.67-3.76-2.98-6.01-3.89c-0.45-0.18-0.91-0.35-1.37-0.5V8.62h1.15
		c0.26,0,0.47-0.21,0.47-0.47V7.22c0-0.26-0.21-0.47-0.47-0.47H15.35c-0.26,0-0.47,0.21-0.47,0.47v0.93c0,0.26,0.21,0.47,0.47,0.47
		h1.15v6.88c-0.46,0.15-0.92,0.31-1.37,0.5c-2.25,0.91-4.27,2.22-6.01,3.89c-1.74,1.67-3.1,3.62-4.06,5.78
		c-0.99,2.25-1.49,4.63-1.49,7.09s0.5,4.84,1.49,7.09c0.95,2.17,2.32,4.11,4.06,5.78c1.74,1.67,3.76,2.98,6.01,3.89
		c2.33,0.95,4.8,1.43,7.35,1.43s5.02-0.48,7.35-1.43c2.25-0.91,4.27-2.22,6.01-3.89c1.74-1.67,3.1-3.62,4.06-5.78
		c0.99-2.25,1.49-4.63,1.49-7.09S40.89,27.91,39.9,25.67z M22.48,49.59c-9.68,0-17.55-7.55-17.55-16.83
		c0-7.75,5.48-14.29,12.92-16.24v-1.95v-2.8V8.66h0.01V8.19h9.25v4.63H27.1v1.75v1.95c7.44,1.95,12.92,8.49,12.92,16.24
		C40.03,42.04,32.16,49.59,22.48,49.59z"/>
</g>
</svg>
